<svg width="175" height="54" viewBox="0 0 175 54" fill="none" xmlns="http://www.w3.org/2000/svg">
<path d="M31.744 42.5597C31.936 42.3677 32.32 42.4957 32.128 42.6877C29.76 45.1197 26.816 46.9117 23.488 46.9117C19.584 46.9117 17.6 44.1597 17.536 40.7037C14.528 40.7037 11.136 39.3597 11.136 34.1117C11.136 32.0637 11.84 29.6957 12.992 27.1997H11.648C4.54398 27.1997 -1.52588e-05 23.1677 -1.52588e-05 17.3437C-1.52588e-05 8.57565 10.88 0.127655 19.648 0.127655C19.968 0.127655 19.968 0.511654 19.648 0.511654C10.944 0.511654 1.15198 8.95966 1.15198 17.7277C1.15198 22.7837 4.92798 26.8157 11.648 26.8157C12.16 26.8157 12.672 26.8157 13.184 26.7517C19.008 14.9117 35.584 -0.000347137 43.904 -0.000347137C46.272 -0.000347137 47.104 1.15165 47.104 2.68766C47.104 9.02365 32.064 24.3197 16.064 26.8797C14.272 30.3357 13.184 33.4717 13.184 35.9037C13.184 39.1677 15.232 40.1917 17.536 40.2557C17.664 33.0877 24.64 24.1917 30.72 24.1917C32.512 24.1917 33.856 25.2157 33.856 27.0717C33.856 32.1277 25.728 39.9357 18.56 40.6397V41.2797C18.56 44.3517 20.032 46.5277 23.488 46.5277C26.688 46.5277 29.44 44.9277 31.744 42.5597ZM43.904 0.383656C36.608 0.383656 22.592 14.7197 16.384 26.3677C31.616 23.6157 46.336 8.76765 46.336 2.68766C46.336 1.34365 45.824 0.383656 43.904 0.383656ZM30.976 24.8317C25.92 24.8317 19.264 33.4717 18.624 40.1917C25.216 39.6797 33.344 32.1277 33.344 27.0717C33.344 25.5997 32.448 24.8317 30.976 24.8317ZM45.566 25.9197C46.782 25.9197 47.358 26.5597 47.358 27.5837C47.358 29.7597 45.054 32.2557 45.054 33.2157C45.054 33.5997 45.31 33.8557 46.078 33.8557C47.998 33.8557 49.918 31.5517 49.918 31.5517H50.366C50.366 31.5517 48.19 34.2397 46.014 34.2397C45.31 34.2397 44.734 33.9837 44.414 33.5997C42.238 36.4157 39.294 38.8477 37.182 38.8477C35.518 38.8477 34.686 37.1837 34.686 35.7117C34.686 30.8477 41.406 25.9197 45.566 25.9197ZM37.374 38.4637C39.166 38.4637 42.046 36.0317 44.158 33.3437C43.902 32.8957 43.774 32.3837 43.774 31.8717C43.774 30.5277 44.542 29.2477 45.63 29.2477C46.014 29.2477 46.27 29.4397 46.334 29.8237C46.718 28.9917 46.974 28.2237 46.974 27.5837C46.974 26.8797 46.654 26.3037 45.822 26.3037C42.686 26.3037 36.03 34.0477 36.03 37.3117C36.03 38.0157 36.414 38.4637 37.374 38.4637ZM49.7175 31.8717C53.6855 26.6237 59.3815 18.8157 63.7975 18.8157C64.1175 18.8157 64.0535 19.1997 63.7975 19.1997C60.0215 19.1997 55.1575 25.4077 51.6375 30.3997H51.8295C53.8775 28.2237 56.6295 25.9197 58.7415 25.9197C60.2775 25.9197 60.9175 26.6877 60.9175 27.9037C60.9175 31.7437 55.0935 38.8477 49.3335 38.8477C46.9015 38.8477 47.9895 35.0077 49.7175 35.0077C50.1015 35.0077 50.4855 35.3277 50.4855 35.7757C50.4855 36.8637 48.5655 37.1197 48.5655 38.0157C48.5655 38.3357 48.8215 38.4637 49.2055 38.4637C52.9815 38.4637 59.5095 30.1437 59.5095 27.0717C59.5095 26.4957 59.1895 26.3037 58.7415 26.3037C56.5015 26.3037 51.7015 30.2717 48.6935 34.8797C43.5095 42.8157 38.5175 51.6477 38.8375 51.0717C38.8375 51.1357 38.7735 51.0717 38.7735 51.0717C38.7735 51.0717 38.5175 50.6877 37.4295 50.6877C36.0215 50.6877 34.7415 52.2237 33.9095 53.1197C33.7815 53.2477 33.5895 53.1837 33.7175 53.0557C34.2935 52.3517 42.5495 41.3437 49.7175 31.8717ZM55.4775 38.8477C55.2215 38.8477 55.2855 38.4637 55.5415 38.4637C58.8055 38.4637 63.7975 31.5517 63.7975 31.5517H64.2455C64.2455 31.5517 58.9975 38.8477 55.4775 38.8477ZM74.7285 26.7517C74.7285 28.7997 68.9685 32.3837 65.6405 32.5117C64.6805 33.9837 64.0405 35.4557 64.0405 36.7357C64.0405 37.7597 64.6165 38.4637 66.0885 38.4637C70.7605 38.4637 75.8805 31.5517 75.8805 31.5517H76.3285C76.3285 31.5517 71.0165 38.8477 65.8965 38.8477C63.8485 38.8477 62.5045 37.3117 62.5045 35.1997C62.5045 29.8877 70.1205 25.9197 73.3845 25.9197C74.2805 25.9197 74.7285 26.1757 74.7285 26.7517ZM73.5765 26.2397C71.4645 26.2397 67.9445 29.1197 65.8325 32.1917C68.8405 32.0637 74.0885 28.4797 74.0885 26.6877C74.0885 26.3677 73.8965 26.2397 73.5765 26.2397ZM76.3575 31.5517H75.9095C75.9095 31.5517 80.1335 25.9197 82.5015 25.9197C83.4615 25.9197 84.0375 26.6877 84.0375 27.7117C84.0375 28.7357 83.5895 30.0157 82.9495 31.2957H83.0775C85.3175 28.7357 88.1975 25.9197 90.3735 25.9197C91.5255 25.9197 92.4215 26.5597 92.4215 27.8397C92.4215 32.0637 85.5095 34.6877 85.5095 37.3757C85.5095 38.1437 86.1495 38.4637 86.9175 38.4637C90.1175 38.4637 95.1095 31.5517 95.1095 31.5517H95.5575C95.5575 31.5517 90.3095 38.8477 86.9175 38.8477C85.5095 38.8477 84.3575 38.0157 84.3575 36.5437C84.3575 32.5117 91.2695 30.1437 91.2695 27.0717C91.2695 26.6237 90.9495 26.3037 90.3735 26.3037C86.7255 26.3037 81.2855 34.2397 77.6375 38.7837H77.5095C77.5095 38.7837 77.1255 38.3997 76.3575 38.3997C75.3335 38.3997 74.1815 39.2317 74.1815 39.2317C74.0535 39.3597 74.0535 39.2317 74.0535 39.2317C75.2055 38.0797 83.2695 29.8237 83.2695 27.1997C83.2695 26.6237 83.0775 26.3037 82.4375 26.3037C80.3255 26.3037 76.3575 31.5517 76.3575 31.5517ZM109.625 21.3757C109.241 21.3757 109.305 21.0557 109.561 21.0557C116.665 20.6077 119.801 12.1597 114.169 12.1597C108.473 12.1597 101.881 22.5277 95.545 33.4077H95.673C98.233 30.2077 102.201 25.9197 104.889 25.9197C106.041 25.9197 106.873 26.5597 106.873 27.8397C106.873 32.0637 99.705 34.6877 99.705 37.3757C99.705 38.1437 100.217 38.4637 101.177 38.4637C104.313 38.4637 109.305 31.5517 109.305 31.5517H109.753C109.753 31.5517 104.505 38.8477 101.177 38.8477C99.577 38.8477 98.489 38.0157 98.489 36.5437C98.489 32.5117 105.849 30.0797 105.849 27.1357C105.849 26.6237 105.529 26.3037 104.889 26.3037C101.241 26.3037 95.033 34.5597 92.409 38.7837H92.281C92.281 38.7837 91.897 38.3997 91.257 38.3997C90.169 38.3997 89.401 39.3597 89.401 39.3597C89.337 39.3597 89.337 39.2317 89.337 39.2317C99.065 25.2797 107.449 11.7757 114.169 11.7757C120.441 11.7757 117.177 20.8637 109.625 21.3757ZM107.62 35.7117C107.62 30.9757 114.916 25.9197 118.884 25.9197C120.036 25.9197 120.42 26.4957 120.42 27.3277C120.42 27.9037 120.164 28.6717 120.164 28.6717H120.292C121.444 27.1997 122.34 26.1117 122.34 26.1117H122.404C122.404 26.1117 122.788 26.4957 123.556 26.4957C124.644 26.4957 125.668 25.5997 125.668 25.5997C125.732 25.5357 125.86 25.5357 125.796 25.5997C125.796 25.5997 117.156 34.4317 117.156 37.2477C117.156 38.0157 117.54 38.4637 118.372 38.4637C121.188 38.4637 126.244 31.5517 126.244 31.5517H126.692C126.692 31.5517 121.38 38.8477 118.308 38.8477C117.22 38.8477 116.452 38.0797 116.452 36.6717C116.452 35.7757 116.772 34.7517 117.22 33.6637H117.092C114.852 36.4157 111.908 38.8477 110.052 38.8477C108.388 38.8477 107.62 37.3117 107.62 35.7117ZM108.964 37.3117C108.964 38.0157 109.348 38.4637 110.116 38.4637C113.188 38.4637 120.036 30.5917 120.036 27.3277C120.036 26.6877 119.78 26.3037 119.076 26.3037C115.876 26.3037 108.964 34.1757 108.964 37.3117ZM109.326 44.6077C105.486 44.6077 103.694 53.3757 111.886 53.3757C120.59 53.3757 127.31 42.6237 131.086 37.5037L133.07 34.7517H132.878C130.766 37.0557 128.462 38.8477 126.798 38.8477C125.134 38.8477 124.622 37.3117 124.622 35.7117C124.622 30.9757 131.662 25.9197 135.63 25.9197C136.782 25.9197 137.23 26.4957 137.23 27.3277C137.23 27.8397 137.038 28.4797 136.718 29.2477H136.846C138.126 27.3277 139.022 25.9837 139.022 25.9837H139.15C139.15 25.9837 139.406 26.3677 140.174 26.3677C141.262 26.3677 142.286 25.4077 142.286 25.4077C142.414 25.4077 142.414 25.5357 142.414 25.5357C142.414 25.5357 137.998 31.1037 132.75 37.6957C128.718 42.8797 121.294 53.6957 111.886 53.6957C103.054 53.6957 104.782 43.2637 110.862 43.2637C111.438 43.2637 111.95 43.7757 111.95 44.3517C111.95 44.9277 111.438 45.4397 110.862 45.4397C110.862 45.4397 110.542 44.6077 109.326 44.6077ZM125.71 37.3117C125.71 38.0157 126.094 38.4637 126.99 38.4637C129.934 38.4637 136.846 30.5917 136.846 27.3277C136.846 26.6877 136.59 26.3037 135.886 26.3037C132.75 26.3037 125.71 34.1757 125.71 37.3117ZM134.542 38.8477L134.606 38.4637C137.422 38.4637 142.478 31.5517 142.478 31.5517H142.926C142.926 31.5517 137.614 38.8477 134.542 38.8477ZM153.416 26.7517C153.416 28.7997 147.656 32.3837 144.328 32.5117C143.368 33.9837 142.728 35.4557 142.728 36.7357C142.728 37.7597 143.304 38.4637 144.776 38.4637C149.448 38.4637 154.568 31.5517 154.568 31.5517H155.016C155.016 31.5517 149.704 38.8477 144.584 38.8477C142.536 38.8477 141.192 37.3117 141.192 35.1997C141.192 29.8877 148.808 25.9197 152.072 25.9197C152.968 25.9197 153.416 26.1757 153.416 26.7517ZM152.264 26.2397C150.152 26.2397 146.632 29.1197 144.52 32.1917C147.528 32.0637 152.776 28.4797 152.776 26.6877C152.776 26.3677 152.584 26.2397 152.264 26.2397ZM155.045 31.5517H154.597C154.597 31.5517 158.821 25.9197 161.189 25.9197C162.149 25.9197 162.725 26.6877 162.725 27.7117C162.725 28.7357 162.277 30.0157 161.637 31.2957H161.765C164.005 28.7357 166.885 25.9197 169.061 25.9197C170.213 25.9197 171.109 26.5597 171.109 27.8397C171.109 32.0637 164.197 34.6877 164.197 37.3757C164.197 38.1437 164.837 38.4637 165.605 38.4637C168.805 38.4637 173.797 31.5517 173.797 31.5517H174.245C174.245 31.5517 168.997 38.8477 165.605 38.8477C164.197 38.8477 163.045 38.0157 163.045 36.5437C163.045 32.5117 169.957 30.1437 169.957 27.0717C169.957 26.6237 169.637 26.3037 169.061 26.3037C165.413 26.3037 159.973 34.2397 156.325 38.7837H156.197C156.197 38.7837 155.813 38.3997 155.045 38.3997C154.021 38.3997 152.869 39.2317 152.869 39.2317C152.741 39.3597 152.741 39.2317 152.741 39.2317C153.893 38.0797 161.957 29.8237 161.957 27.1997C161.957 26.6237 161.765 26.3037 161.125 26.3037C159.013 26.3037 155.045 31.5517 155.045 31.5517Z" fill="black"/>
</svg>
