<svg width="167" height="44" viewBox="0 0 167 44" fill="none" xmlns="http://www.w3.org/2000/svg">
<path d="M32.64 8.12796C32.32 8.12796 32.32 7.74396 32.64 7.74396C37.12 7.74396 39.168 10.752 39.168 15.04C39.168 23.424 31.168 35.072 18.944 35.072C1.23978e-05 35.072 9.21601 -4.19617e-05 37.376 -4.19617e-05C46.464 -4.19617e-05 51.712 4.15996 53.76 9.91996C58.496 5.18396 63.168 2.23996 67.584 2.23996C68.352 2.23996 68.992 2.36796 69.504 2.81596C69.76 3.00796 69.376 3.39196 69.12 3.07196C68.736 2.68796 68.096 2.62396 67.584 2.62396C62.72 2.62396 58.624 6.52796 54.4 12.032C57.152 24.832 46.08 43.264 27.84 43.264C25.664 43.264 23.808 42.816 22.08 42.176C20.608 42.496 19.072 42.624 17.472 42.624C4.80001 42.624 4.99201 37.184 9.53601 37.184C14.272 37.184 17.792 40.128 22.144 41.728C32.128 39.68 37.824 30.784 44.096 21.888C47.168 17.536 50.304 13.568 53.44 10.304C51.52 4.60796 46.4 0.383961 37.376 0.383961C12.16 0.383961 1.79201 34.624 19.456 34.624C30.464 34.624 38.784 23.424 38.784 15.04C38.784 10.944 36.864 8.12796 32.64 8.12796ZM27.84 42.88C45.568 42.88 56.384 25.088 53.952 12.544C51.712 15.552 49.408 18.944 46.912 22.464C40.832 31.232 33.216 39.808 22.848 42.048C24.384 42.56 25.984 42.88 27.84 42.88ZM17.472 42.24C18.816 42.24 20.096 42.112 21.312 41.92C17.152 40.256 13.888 37.568 9.53601 37.568C5.31201 37.568 5.88801 42.24 17.472 42.24ZM63.532 28.864C63.532 30.912 57.772 34.496 54.444 34.624C53.484 36.096 52.844 37.568 52.844 38.848C52.844 39.872 53.42 40.576 54.892 40.576C59.564 40.576 64.684 33.664 64.684 33.664H65.132C65.132 33.664 59.82 40.96 54.7 40.96C52.652 40.96 51.308 39.424 51.308 37.312C51.308 32 58.924 28.032 62.188 28.032C63.084 28.032 63.532 28.288 63.532 28.864ZM62.38 28.352C60.268 28.352 56.748 31.232 54.636 34.304C57.644 34.176 62.892 30.592 62.892 28.8C62.892 28.48 62.7 28.352 62.38 28.352ZM65.161 33.664H64.713C64.713 33.664 68.937 28.032 71.305 28.032C72.265 28.032 72.841 28.8 72.841 29.824C72.841 30.848 72.393 32.128 71.753 33.408H71.881C74.121 30.848 77.001 28.032 79.177 28.032C80.329 28.032 81.225 28.672 81.225 29.952C81.225 34.176 74.313 36.8 74.313 39.488C74.313 40.256 74.953 40.576 75.721 40.576C78.921 40.576 83.913 33.664 83.913 33.664H84.361C84.361 33.664 79.113 40.96 75.721 40.96C74.313 40.96 73.161 40.128 73.161 38.656C73.161 34.624 80.073 32.256 80.073 29.184C80.073 28.736 79.753 28.416 79.177 28.416C75.529 28.416 70.089 36.352 66.441 40.896H66.313C66.313 40.896 65.929 40.512 65.161 40.512C64.137 40.512 62.985 41.344 62.985 41.344C62.857 41.472 62.857 41.344 62.857 41.344C64.009 40.192 72.073 31.936 72.073 29.312C72.073 28.736 71.881 28.416 71.241 28.416C69.129 28.416 65.161 33.664 65.161 33.664ZM106.045 28.416C102.397 28.416 96.5085 36.864 93.3085 40.896H93.1805C93.1805 40.896 92.7965 40.512 92.1565 40.512C91.0685 40.512 89.9165 41.344 89.9165 41.344C89.8525 41.344 89.7245 41.472 89.8525 41.344C90.8765 40.192 98.8125 31.872 98.8125 29.248C98.8125 28.672 98.4925 28.416 97.9165 28.416C95.2925 28.416 89.7245 35.456 85.6285 40.896H85.5005C85.5005 40.896 85.0525 40.512 84.3485 40.512C83.3245 40.512 82.1725 41.344 82.1725 41.344C82.0445 41.472 82.0445 41.344 82.0445 41.344C83.1965 40.192 91.1965 31.872 91.1965 29.248C91.1965 28.672 91.0045 28.416 90.4285 28.416C88.2525 28.416 84.3485 33.664 84.3485 33.664H83.9005C83.9005 33.664 87.9965 28.032 90.4925 28.032C91.4525 28.032 91.9645 28.8 91.9645 29.824C91.9645 30.912 91.5165 32.192 90.8125 33.472H91.0045C93.1805 30.976 96.1245 28.032 97.9805 28.032C98.9405 28.032 99.6445 28.8 99.6445 29.824C99.6445 30.912 99.1965 32.192 98.4285 33.6H98.6205C100.861 30.976 103.869 28.032 106.045 28.032C107.197 28.032 108.093 28.672 108.093 29.952C108.093 34.176 101.181 36.8 101.181 39.488C101.181 40.256 101.757 40.576 102.717 40.576C105.725 40.576 110.781 33.664 110.781 33.664H111.229C111.229 33.664 105.981 40.96 102.589 40.96C101.181 40.96 100.029 40.128 100.029 38.656C100.029 34.624 106.941 32.256 106.941 29.184C106.941 28.736 106.685 28.416 106.045 28.416ZM109.112 37.824C109.112 33.088 116.408 28.032 120.376 28.032C121.528 28.032 121.912 28.608 121.912 29.44C121.912 30.016 121.656 30.784 121.656 30.784H121.784C122.936 29.312 123.832 28.224 123.832 28.224H123.896C123.896 28.224 124.28 28.608 125.048 28.608C126.136 28.608 127.16 27.712 127.16 27.712C127.224 27.648 127.352 27.648 127.288 27.712C127.288 27.712 118.648 36.544 118.648 39.36C118.648 40.128 119.032 40.576 119.864 40.576C122.68 40.576 127.736 33.664 127.736 33.664H128.184C128.184 33.664 122.872 40.96 119.8 40.96C118.712 40.96 117.944 40.192 117.944 38.784C117.944 37.888 118.264 36.864 118.712 35.776H118.584C116.344 38.528 113.4 40.96 111.544 40.96C109.88 40.96 109.112 39.424 109.112 37.824ZM110.456 39.424C110.456 40.128 110.84 40.576 111.608 40.576C114.68 40.576 121.528 32.704 121.528 29.44C121.528 28.8 121.272 28.416 120.568 28.416C117.368 28.416 110.456 36.288 110.456 39.424ZM127.713 33.664C129.953 30.656 131.809 28.288 133.025 26.496C132.961 26.112 132.897 25.728 132.897 25.216C132.897 22.336 135.073 21.44 135.073 22.976C135.073 23.872 134.561 24.96 133.473 26.496C133.985 27.84 135.201 28.928 137.825 28.928C137.953 28.928 137.889 28.992 137.825 29.056C137.633 29.312 129.569 36.864 129.569 39.296C129.569 40.128 129.889 40.576 130.721 40.576C133.793 40.576 139.233 33.664 139.233 33.664H139.681C139.681 33.664 133.857 40.96 130.721 40.96C129.569 40.96 128.993 40.192 128.993 38.912C128.993 35.328 134.241 29.888 134.561 29.504C135.073 28.928 133.793 28.352 133.217 26.88C132.001 28.672 130.209 30.912 128.161 33.664H127.713ZM154.637 23.488C154.317 23.488 154.317 23.168 154.637 23.168C161.741 22.72 165.389 14.272 159.693 14.272C154.381 14.272 147.597 23.744 140.941 34.048H141.069C143.693 30.912 147.149 27.456 149.517 27.456C153.037 27.456 151.629 32.512 145.549 33.472C146.573 33.792 147.085 34.432 147.085 35.2C147.085 37.504 143.565 38.208 143.565 39.936C143.565 40.32 143.821 40.576 144.397 40.576C148.109 40.576 153.101 33.664 153.101 33.664H153.549C153.549 33.664 148.493 40.96 144.397 40.96C143.309 40.96 142.477 40.192 142.477 39.168C142.477 36.864 145.805 35.904 145.805 34.432C145.805 33.728 144.909 33.6 143.501 33.6C142.861 33.6 142.861 33.216 143.181 33.216C149.389 33.216 151.373 27.84 149.261 27.84C145.997 27.84 139.405 36.544 136.525 40.896H136.397C136.397 40.896 136.013 40.512 135.373 40.512C134.285 40.512 133.517 41.472 133.517 41.472C133.453 41.472 133.389 41.344 133.453 41.344C143.949 27.392 152.973 13.888 159.693 13.888C166.029 13.888 162.317 22.976 154.637 23.488Z" fill="black"/>
</svg>
