<svg width="685" height="143" viewBox="0 0 685 143" fill="none" xmlns="http://www.w3.org/2000/svg">
<path d="M12.8 114.944C51.84 114.944 89.472 35.0718 120.192 35.0718C120.576 35.0718 120.576 35.8398 120.192 35.8398C104.448 35.8398 51.84 112.896 59.264 112.896C67.584 112.896 116.48 35.0718 147.456 35.0718C147.968 35.0718 147.968 35.8398 147.456 35.8398C130.688 35.8398 71.424 112.896 87.04 112.896C93.184 112.896 104.192 97.7918 104.192 97.7918H105.088C105.088 97.7918 93.568 113.664 87.04 113.664C65.664 113.664 109.824 54.3998 136.704 38.7838H136.064C105.856 52.9918 67.2 113.664 59.392 113.664C44.288 113.664 86.016 52.8638 110.976 38.2718H110.592C82.048 51.4558 48.256 115.712 12.8 115.712C3.2 115.712 0 111.616 0 107.776C0 104.192 3.2 101.12 6.144 101.12C7.68 101.12 8.96 102.144 8.96 103.424C8.96 107.136 2.816 107.776 2.816 110.848C2.816 113.024 6.272 114.944 12.8 114.944ZM139.066 83.8398C135.482 87.8078 130.106 90.1118 124.602 89.3438C124.602 99.5838 113.466 112.384 106.298 112.384C102.97 112.384 101.178 109.056 101.178 106.112C101.178 95.7438 114.362 89.0878 119.61 89.0878C120.506 89.0878 120.634 89.5998 120.25 89.5998C116.154 89.5998 103.994 102.784 103.994 109.312C103.994 110.72 104.634 111.616 106.554 111.616C112.826 111.616 123.834 99.1998 123.834 89.3438V89.2158C121.274 88.5758 118.97 87.5518 118.97 85.5038C118.97 84.0958 119.866 83.3278 121.146 83.3278C123.194 83.3278 124.474 85.5038 124.602 88.7038C129.722 89.8558 135.354 87.1678 138.682 83.3278C138.042 82.3038 137.53 81.1518 137.53 79.7438C137.53 76.9278 139.066 75.3918 140.346 75.3918C141.242 75.3918 142.01 76.1598 142.01 77.8238C142.01 79.4878 141.114 81.4078 139.45 83.3278C141.114 85.3758 143.674 87.2958 143.674 90.4958C143.674 97.7918 129.466 103.808 129.466 109.312C129.466 110.848 130.362 111.616 132.154 111.616C138.426 111.616 148.41 97.7918 148.41 97.7918H149.306C149.306 97.7918 138.81 112.384 132.154 112.384C129.21 112.384 126.906 110.848 126.906 108.032C126.906 99.9678 141.882 94.5918 141.882 88.7038C141.882 86.9118 140.346 85.5038 139.066 83.8398ZM170.263 88.1918C170.263 92.2878 158.743 99.4558 152.087 99.7118C150.167 102.656 148.887 105.6 148.887 108.16C148.887 110.208 150.039 111.616 152.983 111.616C162.327 111.616 172.567 97.7918 172.567 97.7918H173.463C173.463 97.7918 162.839 112.384 152.599 112.384C148.503 112.384 145.815 109.312 145.815 105.088C145.815 94.4638 161.047 86.5278 167.575 86.5278C169.367 86.5278 170.263 87.0398 170.263 88.1918ZM167.959 87.1678C163.735 87.1678 156.695 92.9278 152.471 99.0718C158.487 98.8158 168.983 91.6478 168.983 88.0638C168.983 87.4238 168.599 87.1678 167.959 87.1678ZM207.017 94.3358C209.321 99.3278 214.313 103.552 223.401 103.552C250.025 103.552 261.417 61.0558 228.265 61.0558C208.937 61.0558 195.753 76.5438 195.753 91.2638C195.753 103.936 204.585 115.584 222.505 115.584C259.497 115.584 271.913 77.8238 291.113 55.9358C286.761 48.3838 285.353 39.1678 286.249 30.3358C283.305 30.7198 280.489 31.2318 277.929 31.9998C285.481 44.4158 272.937 68.3518 256.425 68.3518C242.473 68.3518 247.977 39.8078 276.777 31.4878C274.089 27.9038 269.353 25.4718 262.057 25.4718C246.569 25.4718 235.689 38.5278 235.689 48.3838C235.689 49.2798 235.945 51.1998 235.945 51.3278C235.945 52.0958 235.177 52.9918 234.025 52.9918C233.001 52.9918 232.233 52.0958 232.233 51.1998C232.233 47.3598 240.425 24.7038 262.057 24.7038C269.737 24.7038 274.857 27.2638 277.545 31.2318C280.361 30.4638 283.177 29.9518 286.377 29.5678C288.297 13.9518 297.897 -0.000213623 312.233 -0.000213623C330.921 -0.000213623 325.929 26.4958 311.081 26.4958C310.697 26.4958 310.697 26.1118 311.081 26.1118C325.161 26.1118 329.897 0.511787 312.233 0.511787C298.153 0.511787 288.809 14.2078 286.889 29.5678C289.065 29.3118 291.369 29.1838 293.673 29.1838C317.097 29.1838 328.233 40.3198 352.809 40.3198C390.185 40.3198 389.161 13.1838 373.289 13.1838C372.777 13.1838 372.777 12.4158 373.289 12.4158C390.441 12.4158 392.489 43.3918 359.209 43.3918C328.233 43.3918 317.097 29.9518 293.673 29.9518C291.241 29.9518 288.937 30.0798 286.761 30.3358C285.865 38.9118 287.273 47.9998 291.497 55.5518C299.305 46.8478 308.137 40.7038 320.169 40.7038C320.937 40.7038 320.937 41.3438 320.169 41.3438C307.625 41.3438 299.689 48.2558 293.033 57.8558C296.105 62.3358 300.201 66.1758 305.705 68.7358C317.225 54.7838 327.849 45.0558 338.089 45.0558C355.497 45.0558 351.145 72.7038 323.113 72.7038C316.969 72.7038 311.721 71.6798 307.241 69.8878C300.329 78.9758 293.417 89.7278 286.889 99.9678H287.145C292.393 93.8238 299.433 86.5278 304.297 86.5278C306.601 86.5278 308.265 87.8078 308.265 90.3678C308.265 98.8158 293.929 104.064 293.929 109.44C293.929 110.976 294.953 111.616 296.873 111.616C303.145 111.616 313.129 97.7918 313.129 97.7918H314.025C314.025 97.7918 303.529 112.384 296.873 112.384C293.673 112.384 291.497 110.72 291.497 107.776C291.497 99.7118 306.217 94.8478 306.217 88.9598C306.217 87.9358 305.577 87.2958 304.297 87.2958C297.513 87.2958 284.585 103.168 279.081 112.256H278.825C278.825 112.256 278.057 111.488 276.777 111.488C274.729 111.488 273.321 113.152 273.321 113.152C273.193 113.152 272.937 113.152 272.937 113.152C284.457 97.5358 295.209 81.6638 305.449 69.1198C299.945 66.5598 295.721 62.8478 292.649 58.3678C277.289 80.5118 267.689 116.352 222.505 116.352C204.073 116.352 194.985 104.32 194.985 91.2638C194.985 76.1598 208.553 60.2878 228.265 60.2878C261.929 60.2878 258.217 104.704 224.553 104.704C214.441 104.704 208.553 100.096 206.377 94.5918C206.121 94.0798 206.761 93.8238 207.017 94.3358ZM337.449 45.8238C328.233 45.8238 317.865 55.9358 307.625 69.5038C311.977 71.2958 317.097 72.1918 322.985 72.1918C350.505 72.1918 354.089 45.8238 337.449 45.8238ZM256.425 67.5838C272.169 67.5838 284.841 44.0318 277.161 32.1278C249.129 40.1918 243.753 67.5838 256.425 67.5838ZM309.797 106.112C309.797 96.6398 324.389 86.5278 332.325 86.5278C334.629 86.5278 335.397 87.6798 335.397 89.3438C335.397 90.4958 334.885 92.0318 334.885 92.0318H335.141C337.445 89.0878 339.237 86.9118 339.237 86.9118H339.365C339.365 86.9118 340.133 87.6798 341.669 87.6798C343.845 87.6798 345.893 85.8878 345.893 85.8878C346.021 85.7598 346.277 85.7598 346.149 85.8878C346.149 85.8878 328.869 103.552 328.869 109.184C328.869 110.72 329.637 111.616 331.301 111.616C336.933 111.616 347.045 97.7918 347.045 97.7918H347.941C347.941 97.7918 337.317 112.384 331.173 112.384C328.997 112.384 327.461 110.848 327.461 108.032C327.461 106.24 328.101 104.192 328.997 102.016H328.741C324.261 107.52 318.373 112.384 314.661 112.384C311.333 112.384 309.797 109.312 309.797 106.112ZM312.485 109.312C312.485 110.72 313.253 111.616 314.789 111.616C320.933 111.616 334.629 95.8718 334.629 89.3438C334.629 88.0638 334.117 87.2958 332.709 87.2958C326.309 87.2958 312.485 103.04 312.485 109.312ZM347.896 97.7918H347C347 97.7918 355.448 86.5278 360.184 86.5278C362.104 86.5278 363.256 88.0638 363.256 90.1118C363.256 92.1598 362.36 94.7198 361.08 97.2798H361.336C365.816 92.1598 371.576 86.5278 375.928 86.5278C378.232 86.5278 380.024 87.8078 380.024 90.3678C380.024 98.8158 366.2 104.064 366.2 109.44C366.2 110.976 367.48 111.616 369.016 111.616C375.416 111.616 385.4 97.7918 385.4 97.7918H386.296C386.296 97.7918 375.8 112.384 369.016 112.384C366.2 112.384 363.896 110.72 363.896 107.776C363.896 99.7118 377.72 94.9758 377.72 88.8318C377.72 87.9358 377.08 87.2958 375.928 87.2958C368.632 87.2958 357.752 103.168 350.456 112.256H350.2C350.2 112.256 349.432 111.488 347.896 111.488C345.848 111.488 343.544 113.152 343.544 113.152C343.288 113.408 343.288 113.152 343.288 113.152C345.592 110.848 361.72 94.3358 361.72 89.0878C361.72 87.9358 361.336 87.2958 360.056 87.2958C355.832 87.2958 347.896 97.7918 347.896 97.7918ZM471.607 78.9758C470.967 78.9758 470.967 78.2078 471.607 78.2078C486.967 78.2078 499.895 63.1038 499.895 50.4318C499.895 47.2318 498.999 44.1598 496.951 41.5998C472.631 59.0078 464.311 114.048 421.303 114.048C411.703 114.048 408.503 109.952 408.503 106.112C408.503 102.528 411.703 99.4558 414.647 99.4558C416.183 99.4558 417.335 100.48 417.335 101.76C417.335 105.472 411.191 105.984 411.191 109.184C411.191 111.36 414.903 113.28 421.303 113.28C453.559 113.28 469.175 58.1118 496.183 40.8318C492.855 37.2478 486.839 34.8158 477.751 34.8158C430.647 34.8158 411.959 83.7118 437.175 83.7118C460.087 83.7118 475.703 47.7438 460.343 47.7438C459.703 47.7438 459.703 47.2318 460.343 47.2318C478.903 47.2318 463.927 84.6078 437.815 84.6078C410.423 84.6078 429.495 34.0478 477.751 34.0478C486.711 34.0478 493.111 36.3518 497.207 40.0638C502.071 37.1198 507.191 35.5838 512.823 35.5838C513.335 35.5838 513.335 36.3518 512.823 36.3518C507.191 36.3518 502.455 38.0158 498.103 40.9598C501.431 44.2878 502.967 48.6398 502.967 52.9918C502.967 63.4878 493.367 75.6478 478.007 78.4638C481.079 79.2318 482.103 81.9198 482.103 83.7118C482.103 92.5438 467.127 100.48 467.127 108.928C467.127 111.104 468.535 112.384 471.223 112.384C479.031 112.384 489.399 97.7918 489.399 97.7918H490.295C490.295 97.7918 479.671 113.152 471.223 113.152C466.999 113.152 464.567 110.464 464.567 106.368C464.567 96.2558 479.287 88.8318 479.287 81.2798C479.287 79.7438 478.263 78.7198 476.471 78.7198C474.935 78.8478 473.271 78.9758 471.607 78.9758ZM520.607 97.7918H521.503C521.503 97.7918 510.879 112.384 504.351 112.384C502.175 112.384 501.023 110.848 501.023 108.16C501.023 106.496 501.663 104.448 502.687 102.272H502.303C498.463 106.496 492.575 112.384 488.351 112.384C486.047 112.384 484.895 110.848 484.895 108.16C484.895 101.12 497.567 86.9118 497.567 86.9118H497.823C497.823 86.9118 498.591 87.6798 500.127 87.6798C502.175 87.6798 504.479 85.7598 504.479 85.7598C504.735 85.5038 504.863 85.7598 504.735 85.8878C504.735 85.8878 486.047 103.936 486.047 109.184C486.047 110.72 486.687 111.616 488.607 111.616C492.959 111.616 499.487 104.576 505.247 97.5358C508.447 93.5678 513.695 86.9118 513.695 86.9118H513.951C513.951 86.9118 514.719 87.6798 515.999 87.6798C518.175 87.6798 520.607 85.7598 520.607 85.7598C520.863 85.5038 520.991 85.7598 520.863 85.8878C520.863 85.8878 502.175 103.936 502.175 109.184C502.175 110.72 502.815 111.616 504.479 111.616C510.495 111.616 520.607 97.7918 520.607 97.7918ZM521.521 97.7918H520.625C520.625 97.7918 529.073 86.5278 533.809 86.5278C535.729 86.5278 536.881 88.0638 536.881 90.1118C536.881 92.1598 535.985 94.7198 534.705 97.2798H534.961C539.441 92.1598 545.201 86.5278 549.553 86.5278C551.857 86.5278 553.649 87.8078 553.649 90.3678C553.649 98.8158 539.825 104.064 539.825 109.44C539.825 110.976 541.105 111.616 542.641 111.616C549.041 111.616 559.025 97.7918 559.025 97.7918H559.921C559.921 97.7918 549.425 112.384 542.641 112.384C539.825 112.384 537.521 110.72 537.521 107.776C537.521 99.7118 551.345 94.9758 551.345 88.8318C551.345 87.9358 550.705 87.2958 549.553 87.2958C542.257 87.2958 531.377 103.168 524.081 112.256H523.825C523.825 112.256 523.057 111.488 521.521 111.488C519.473 111.488 517.169 113.152 517.169 113.152C516.913 113.408 516.913 113.152 516.913 113.152C519.217 110.848 535.345 94.3358 535.345 89.0878C535.345 87.9358 534.961 87.2958 533.681 87.2958C529.457 87.2958 521.521 97.7918 521.521 97.7918ZM559.896 97.7918H559C559 97.7918 567.448 86.5278 572.184 86.5278C574.104 86.5278 575.256 88.0638 575.256 90.1118C575.256 92.1598 574.36 94.7198 573.08 97.2798H573.336C577.816 92.1598 583.576 86.5278 587.928 86.5278C590.232 86.5278 592.024 87.8078 592.024 90.3678C592.024 98.8158 578.2 104.064 578.2 109.44C578.2 110.976 579.48 111.616 581.016 111.616C587.416 111.616 597.4 97.7918 597.4 97.7918H598.296C598.296 97.7918 587.8 112.384 581.016 112.384C578.2 112.384 575.896 110.72 575.896 107.776C575.896 99.7118 589.72 94.9758 589.72 88.8318C589.72 87.9358 589.08 87.2958 587.928 87.2958C580.632 87.2958 569.752 103.168 562.456 112.256H562.2C562.2 112.256 561.432 111.488 559.896 111.488C557.848 111.488 555.544 113.152 555.544 113.152C555.288 113.408 555.288 113.152 555.288 113.152C557.592 110.848 573.72 94.3358 573.72 89.0878C573.72 87.9358 573.336 87.2958 572.056 87.2958C567.832 87.2958 559.896 97.7918 559.896 97.7918ZM612.479 97.7918H613.375C613.375 97.7918 602.879 112.384 596.351 112.384C594.047 112.384 592.639 111.104 592.639 108.16C592.639 100.864 605.567 86.9118 605.567 86.9118C605.823 86.9118 605.823 86.9118 605.823 86.9118C605.823 86.9118 606.591 87.6798 608.127 87.6798C610.175 87.6798 612.479 85.8878 612.479 85.8878C612.863 85.7598 612.735 85.8878 612.735 85.8878C612.735 85.8878 594.047 103.936 594.047 109.312C594.047 110.72 594.687 111.616 596.607 111.616C602.495 111.616 612.479 97.7918 612.479 97.7918ZM617.087 72.4478C618.111 72.4478 619.007 73.0878 619.007 73.8558C619.007 75.3918 615.423 78.0798 614.015 78.0798C612.479 78.0798 614.399 72.4478 617.087 72.4478ZM613.396 97.7918H612.5C612.5 97.7918 620.948 86.5278 625.684 86.5278C627.604 86.5278 628.756 88.0638 628.756 90.1118C628.756 92.1598 627.86 94.7198 626.58 97.2798H626.836C631.316 92.1598 637.076 86.5278 641.428 86.5278C643.732 86.5278 645.524 87.8078 645.524 90.3678C645.524 98.8158 631.7 104.064 631.7 109.44C631.7 110.976 632.98 111.616 634.516 111.616C640.916 111.616 650.9 97.7918 650.9 97.7918H651.796C651.796 97.7918 641.3 112.384 634.516 112.384C631.7 112.384 629.396 110.72 629.396 107.776C629.396 99.7118 643.22 94.9758 643.22 88.8318C643.22 87.9358 642.58 87.2958 641.428 87.2958C634.132 87.2958 623.252 103.168 615.956 112.256H615.7C615.7 112.256 614.932 111.488 613.396 111.488C611.348 111.488 609.044 113.152 609.044 113.152C608.788 113.408 608.788 113.152 608.788 113.152C611.092 110.848 627.22 94.3358 627.22 89.0878C627.22 87.9358 626.836 87.2958 625.556 87.2958C621.332 87.2958 613.396 97.7918 613.396 97.7918ZM617.083 123.904C609.403 123.904 605.819 141.44 622.203 141.44C639.611 141.44 653.051 119.936 660.603 109.696L664.571 104.192H664.187C659.963 108.8 655.355 112.384 652.027 112.384C648.699 112.384 647.675 109.312 647.675 106.112C647.675 96.6398 661.755 86.5278 669.691 86.5278C671.995 86.5278 672.891 87.6798 672.891 89.3438C672.891 90.3678 672.507 91.6478 671.867 93.1838H672.123C674.683 89.3438 676.475 86.6558 676.475 86.6558H676.731C676.731 86.6558 677.243 87.4238 678.779 87.4238C680.955 87.4238 683.003 85.5038 683.003 85.5038C683.259 85.5038 683.259 85.7598 683.259 85.7598C683.259 85.7598 674.427 96.8958 663.931 110.08C655.867 120.448 641.019 142.08 622.203 142.08C604.539 142.08 607.995 121.216 620.155 121.216C621.307 121.216 622.331 122.24 622.331 123.392C622.331 124.544 621.307 125.568 620.155 125.568C620.155 125.568 619.515 123.904 617.083 123.904ZM649.851 109.312C649.851 110.72 650.619 111.616 652.411 111.616C658.299 111.616 672.123 95.8718 672.123 89.3438C672.123 88.0638 671.611 87.2958 670.203 87.2958C663.931 87.2958 649.851 103.04 649.851 109.312ZM667.515 112.384L667.643 111.616C673.275 111.616 683.387 97.7918 683.387 97.7918H684.283C684.283 97.7918 673.659 112.384 667.515 112.384Z" fill="black"/>
</svg>
